<?xml version="1.0" encoding="UTF-8" standalone="no"?>
<svg width="100px" height="100px" viewBox="0 0 100 100" version="1.1" xmlns="http://www.w3.org/2000/svg" xmlns:xlink="http://www.w3.org/1999/xlink" xmlns:sketch="http://www.bohemiancoding.com/sketch/ns">
    <!-- Generator: Sketch 3.4.1 (15681) - http://www.bohemiancoding.com/sketch -->
    <title>path3323-3</title>
    <desc>Created with Sketch.</desc>
    <defs></defs>
    <g id="Page-1" stroke="none" stroke-width="1" fill="none" fill-rule="evenodd" sketch:type="MSPage">
        <path d="M50.8,89 C47.4625035,87.5740898 52.5513884,81.0428454 48.4,83.4 C47.1495004,82.1011467 45.8975365,82.9186663 45.2,82.6 C43.7649764,80.5527307 46.5920776,76.311245 42.8,77 C39.8478102,76.8483569 43.6016415,73.6485072 41.2,73 C40.4633409,70.1296026 37.7727476,68.0906208 37.2,66.6 C33.6433236,71.0993929 29.6081933,61.9917771 34.8,63.4 C42.6793403,59.65514 41.0235935,51.9161778 31.6,61.8 C29.5503281,64.168759 24.2397021,67.4201453 24.4,61.8 C35.625168,54.1828903 35.8634057,51.6119106 23.6,60.2 C19.7890958,62.8970858 19.5884305,57.4254755 18.8,54.6 C20.3983343,54.1376145 17.9485809,51.6938291 20.4,52.2 C21.5323618,51.2809811 24.5890019,47.5600601 21.2,49 C19.3864749,51.2054982 15.4130045,54.4620208 14.8,49.8 C13.1547659,46.5346242 11.6694059,42.894003 11.6,39.4 C9.65668302,37.6104925 9.30245074,35.2433631 11.6,33 C15.6044013,23.0220278 27.2234089,23.0171831 31.6,22.6 C30.4243199,24.7880289 32.6611149,23.8590099 33.2,22.6 C36.9127833,21.6784464 38.4086674,24.5110571 40.4,27.4 C42.3948542,26.6285759 43.7306986,27.2489654 44.4,29 C46.478831,29.7021419 49.5716081,28.6384127 49.2,32.2 C52.7760641,33.7252235 55.4162778,29.6614471 57.2,28.2 C59.7796875,29.3418022 58.1120603,25.8353358 61.2,25.8 C63.6536335,24.8611588 67.3810055,21.1338313 70,23.4 C71.0690421,25.5232844 74.3385574,18.441997 73.2,22.6 C75.5702015,23.9466672 74.0428701,19.8042427 76.4,21.8 C78.6517262,19.9503845 79.4737981,22.60328 81.2,21 C85.4337124,21.5270711 82.3088566,25.8639395 79.6,25 C78.9129552,26.4547813 75.929401,24.3972809 78,26.6 C80.5106392,27.1003735 85.6064823,23.8373471 86.8,27.4 C85.9763585,29.1621217 83.3016935,30.1418097 82,29.8 C79.7977971,33.5641448 87.0778911,30.2413291 89.2,30.6 C91.1363798,32.070014 89.3771022,35.4972494 87.6,34.6 C84.7644444,33.8031913 86.0914644,36.9062355 88.4,35.4 C92.1927358,36.4104014 88.2476117,40.415742 86.8,41.8 C88.0739955,43.7467132 85.6376869,48.1092492 83.6,45.8 C83.0893595,47.1450257 78.5469709,46.6225938 80.4,49 C82.3946241,48.0377227 87.8770279,51.5101437 82.8,52.2 C81.2371966,51.591811 76.8881543,52.644851 78,54.6 C80.4452955,53.4796813 84.6230248,55.6624104 81.2,57.8 C78.8954521,59.9466663 74.7861397,59.1155147 73.2,61.8 C71.3181654,63.9667009 66.3976937,63.5580036 65.2,66.6 C65.3091826,69.2878522 64.7020323,67.659053 63.6,66.6 C62.5043644,68.1490844 60.362751,68.5108539 59.6,70.6 C58.5129469,71.6232684 56.4991903,76.1269418 54,73.8 C54.0882241,70.6237015 50.4922819,77.5973623 54,75.4 C57.4448596,75.4623662 58.4402495,81.4284849 54.8,82.6 C52.6404165,82.3200992 53.9714394,83.5086961 55.6,83.4 C53.3391131,84.2668288 54.7466351,85.3420452 54,87.4 C52.854686,86.9731905 52.7093052,89.9815642 50.8,89 L50.8,89 Z" id="path3323-3" fill="#E9222D" sketch:type="MSShapeGroup"></path>
    </g>
</svg>