<?xml version="1.0" encoding="UTF-8" standalone="no"?>
<svg width="240px" height="240px" viewBox="0 0 240 240" version="1.1" xmlns="http://www.w3.org/2000/svg" xmlns:xlink="http://www.w3.org/1999/xlink" xmlns:sketch="http://www.bohemiancoding.com/sketch/ns">
    <!-- Generator: Sketch 3.4.1 (15681) - http://www.bohemiancoding.com/sketch -->
    <title>Lovepacs Box</title>
    <desc>Created with Sketch.</desc>
    <defs></defs>
    <g id="Page-1" stroke="none" stroke-width="1" fill="none" fill-rule="evenodd" sketch:type="MSPage">
        <g id="Lovepacs-Box" sketch:type="MSLayerGroup" transform="translate(26.000000, 25.000000)">
            <path d="M0,84.984508 L30.5699619,87.3987802 L10.0444166,67.8651236 L75.1147649,52.7210526 L96.950452,69.840437 L117.039287,53.3794897 L180.799489,67.4261649 L160.929021,88.4961771 L188.005263,86.9598214 L128.393838,113.516819 L95.4219543,113.736293 L160.492307,88.0572183 L96.732095,69.6209576 L31.2250328,87.3987802 L95.2035973,113.516819 L62.886779,114.394737 L0,84.984508 Z" id="path4298" stroke="#E9222D" stroke-width="2.2" sketch:type="MSShapeGroup"></path>
            <path d="M30.8368421,99.1324244 L33.0232602,152.935347 L95.5548214,188.005263 L160.272801,151.846213 L161.147368,98.4789474 L161.147368,98.4789474" id="path4300" stroke="#E9222D" stroke-width="2.2" sketch:type="MSShapeGroup"></path>
            <path d="M95.4947368,113.4 L95.8949483,189" id="path4302" stroke="#E9222D" stroke-width="2.2" sketch:type="MSShapeGroup"></path>
            <path d="M95.1149245,106.911421 C89.5297407,105.199676 97.5025502,94.9766612 91.1495295,98.8495175 C89.0393554,96.6331649 87.0778904,97.9127855 85.3636396,97.260101 C83.7367861,94.2095103 88.1660353,87.5705346 82.5536248,88.9410461 C77.5997205,88.4112478 83.4808875,83.4026905 79.1686752,81.7645258 C78.564079,77.8947333 74.3486981,74.7032216 72.8635974,72.2345236 C67.8790861,79.4126952 61.5572049,65.1570207 69.4638659,66.7402772 C82.0359085,61.4996049 79.4418325,49.3862123 64.8883532,65.1796946 C61.466547,68.5645367 53.1463333,73.6537615 53.7153989,65.2234777 C70.9840625,52.9341788 71.357312,48.9099588 52.737639,62.1129921 C46.1735215,66.5740532 45.8591372,58.0096277 45.11006,53.8047254 C47.1280218,52.8633109 43.2899674,49.0381816 47.489947,49.5056513 C48.9047147,48.3919722 53.6935849,42.5678092 48.7302681,45.2053495 C45.5427312,48.2738228 39.3174532,53.3710872 38.2372969,45.7835374 C35.779447,40.9627481 33.4523179,35.2642742 33.6836743,29.9031591 C30.2989638,26.9942717 29.7439843,23.2891279 33.0421563,19.9865829 C39.6173166,4.15971123 57.8209382,4.15212794 64.8137053,3.59522322 C62.835839,6.92394031 66.3402493,5.46979537 66.9959731,3.23423467 C73.001383,2.05667353 75.3450004,6.49041074 78.1910675,10.6797663 C81.5902011,9.80485223 83.6830826,10.7759155 84.6013458,14.0480078 C87.9886106,14.6157442 92.8340971,12.9507447 92.2728354,18.3283627 C97.854552,20.9128634 101.991003,14.5520467 104.519664,11.8452464 C108.827203,14.0517233 106.214513,8.563235 110.45436,8.27649317 C114.896555,7.03840672 120.736267,1.20421602 124.921248,4.7161162 C126.514353,8.07479718 131.636737,-3.00917137 130.126257,3.19763279 C133.566367,5.60700079 131.173481,-0.876919442 134.667218,1.79272503 C138.394224,-0.648171315 139.682173,3.50426718 142.682807,1.248336 C149.019633,1.81973372 144.123889,8.60800684 139.946875,7.73968731 C138.803494,9.53282068 134.129129,6.31232291 137.059898,9.81459752 C141.306603,10.5433322 149.290314,5.43588785 150.888517,11.159567 C149.869803,13.7704789 145.679377,15.3039333 144.258881,14.2365905 C140.189786,20.6607353 151.595585,15.4597058 154.730397,16.3504274 C157.954062,18.3220505 155.197784,23.6865227 152.12274,21.6619035 C147.971084,21.0349023 150.05014,25.891935 153.277947,23.6069959 C159.609066,25.1158318 153.428199,31.3851819 151.162077,33.198425 C153.156193,36.5989769 149.339202,43.4274263 146.639388,39.4303257 C145.346711,41.9181775 138.230103,41.1004424 140.835401,44.4691401 C144.258262,43.3154695 152.847601,48.7506684 145.409533,49.3678918 C142.444908,48.8784979 135.631218,50.5267664 137.057582,53.8152638 C141.204228,51.8334826 147.749521,55.2499942 142.207204,58.596833 C138.776072,61.9559159 132.337969,60.6549577 129.829796,64.598117 C126.904657,68.2482657 119.195702,67.6085531 117.28443,72.3977491 C117.490321,76.5771854 116.539092,74.0277112 114.944617,72.3977491 C113.095983,74.7947317 109.740694,75.3609906 108.584064,78.9574696 C106.842587,80.2326902 103.687613,87.2820545 99.3848023,83.5990195 C99.9103269,78.6681203 94.2765263,89.5836268 100.149411,85.5623205 C105.169203,86.241829 106.728691,95.5802825 100.985581,96.9671882 C97.6420314,96.9758797 99.727359,98.8363282 102.165938,98.0441676 C98.7366868,100.022994 100.941866,101.705974 100.337651,104.316049 C97.9777298,104.25912 97.7499601,108.96797 95.1149245,106.911355 L95.1149245,106.911421 Z" id="path3323-3" fill="#E9222D" sketch:type="MSShapeGroup"></path>
        </g>
    </g>
</svg>